<svg xmlns="http://www.w3.org/2000/svg" width="260" height="260" viewBox="0 0 260 260">
    <rect width="260" height="260" fill="transparent" />

    <!-- PÉS -->
    <g fill="#f2c400" stroke="#e1b600" stroke-width="1.5">
        <path
            d="M70 215
             C50 220, 45 235, 62 240
             C80 245, 105 238, 112 230
             C118 223, 100 215, 70 215 Z" />
        <path
            d="M190 215
             C210 220, 215 235, 198 240
             C180 245, 155 238, 148 230
             C142 223, 160 215, 190 215 Z" />
    </g>

    <!-- CORPO -->
    <path
        d="M130 100
           C85 100, 60 135, 60 165
           C60 190, 85 220, 130 240
           C175 220, 200 190, 200 165
           C200 135, 175 100, 130 100 Z"
        fill="#0a0a0a" />

    <!-- PESCOÇO (subido) -->
    <ellipse cx="130" cy="65" rx="20" ry="28" fill="#0a0a0a" />

    <!-- CABEÇA (mais alta) -->
    <ellipse cx="130" cy="55" rx="45" ry="35" fill="#0a0a0a" />

    <!-- CABELO FOFO -->
    <g fill="#0a0a0a">
        <ellipse cx="130" cy="20" rx="7" ry="12" transform="rotate(-5 130 20)" />
        <ellipse cx="113" cy="25" rx="6" ry="10" transform="rotate(-20 113 25)" />
        <ellipse cx="147" cy="25" rx="6" ry="10" transform="rotate(20 147 25)" />
        <ellipse cx="101" cy="32" rx="5" ry="8" transform="rotate(-35 101 32)" />
        <ellipse cx="159" cy="32" rx="5" ry="8" transform="rotate(35 159 32)" />
    </g>

    <!-- BARRIGA -->
    <path
        d="M130 110
           C105 110, 85 135, 85 175
           C85 205, 105 225, 130 230
           C155 225, 175 205, 175 175
           C175 135, 155 110, 130 110 Z"
        fill="#ffffff" />

    <!-- ASAS -->
    <path d="M70 140
           C45 165, 60 200, 90 210
           C95 200, 95 160, 70 140 Z"
        fill="#0a0a0a" />

    <path d="M190 140
           C215 165, 200 200, 170 210
           C165 200, 165 160, 190 140 Z"
        fill="#0a0a0a" />

    <!-- OLHOS (subidos junto com a cabeça) -->
    <circle cx="115" cy="50" r="12" fill="#ffffff" />
    <circle cx="145" cy="50" r="12" fill="#ffffff" />
    <circle cx="118" cy="52" r="5" fill="#000000" />
    <circle cx="142" cy="52" r="5" fill="#000000" />

    <!-- BICO (ajustado) -->
    <path
        d="M108 65
           C108 58, 120 55, 130 55
           C140 55, 152 58, 152 65
           C152 72, 140 78, 130 78
           C120 78, 108 72, 108 65 Z"
        fill="#f2c400" stroke="#e1b600" stroke-width="1.5" />
</svg>