<svg xmlns="http://www.w3.org/2000/svg" width="300" height="300" viewBox="0 0 280 300">
    <g fill="#f2c400" stroke="#e1b600" stroke-width="1.5">
        <path d="M70 215 C50 220,45 235,62 240 C80 245,105 238,112 230 C118 223,100 215,70 215 Z" />
        <path
            d="M190 215 C210 220,215 235,198 240 C180 245,155 238,148 230 C142 223,160 215,190 215 Z" />
    </g>
    <!-- PÉS -->
    <path
        d="M130 100 C85 100,60 135,60 165 C60 190,85 220,130 240 C175 220,200 190,200 165 C200 135,175 100,130 100 Z"
        fill="#0a0a0a">
        <animateTransform attributeName="transform" type="translate" values="0 0; 0 -1.5; 0 0"
            dur="1.2s" repeatCount="indefinite" />
    </path>
    <!-- CORPO (tronco, respiração) -->
    <g transform="translate(0,10)">
        <ellipse cx="130" cy="65" rx="20" ry="28" fill="#0a0a0a" />
        <ellipse cx="130" cy="55" rx="45" ry="35" fill="#0a0a0a" />
        <circle cx="115" cy="50" r="12" fill="#ffffff" />
        <circle cx="145" cy="50" r="12" fill="#ffffff" />
        <circle cx="118" cy="52" r="5" fill="#000000" />
        <circle cx="142" cy="52" r="5" fill="#000000" />
        <path
            d="M108 65 C108 58,120 55,130 55 C140 55,152 58,152 65 C152 72,140 78,130 78 C120 78,108 72,108 65 Z"
            fill="#f2c400" stroke="#e1b600" stroke-width="1.5" />
    </g>
    <!-- PESCOÇO + CABEÇA -->
    <path
        d="M130 110 C105 110,85 135,85 175 C85 205,105 225,130 230 C155 225,175 205,175 175 C175 135,155 110,130 110 Z"
        fill="#ffffff" />
    <path d="M70 140 C45 165,60 200,90 210 C95 200,95 160,70 140 Z" fill="#0a0a0a" />
    <!-- CABELO FOFO -->

    <g fill="#0a0a0a" transform="translate(0,10)">
        <ellipse cx="130" cy="20" rx="7" ry="12" transform="rotate(-5 130 20)" />
        <ellipse cx="113" cy="25" rx="6" ry="10" transform="rotate(-20 113 25)" />
        <ellipse cx="147" cy="25" rx="6" ry="10" transform="rotate(20 147 25)" />
        <ellipse cx="101" cy="32" rx="5" ry="8" transform="rotate(-35 101 32)" />
        <ellipse cx="159" cy="32" rx="5" ry="8" transform="rotate(35 159 32)" />
    </g>
    <g>
        <path
            d="M168 135 C185 95,210 70,215 105 C218 135,195 145,178 150 C170 145,165 140,168 135 Z"
            fill="#0a0a0a" />
        <rect x="212" y="65" width="3" height="85" fill="#4a4a4a" rx="1.5" />
        <circle cx="213.5" cy="65" r="3" fill="#c0c0c0" />
        <g transform="translate(215, 68)">
            <path fill="#00468e">
                <animate attributeName="d" dur="2s" repeatCount="indefinite"
                    values="M0,0 L60,0 L60,40 L0,40 Z; M0,0 Q30,5 60,0 L60,40 Q30,45 0,40 Z; M0,0 Q30,-5 60,0 L60,40 Q30,35 0,40 Z; M0,0 L60,0 L60,40 L0,40 Z" />
            </path>
            <g transform="translate(30, 20) scale(0.7)">
                <circle r="16" fill="none" stroke="white" stroke-width="3" />
                <g fill="white">
                    <path d="M0,-12 l1,3 h3 l-2.5,2 l1,3 l-2.5-2 l-2.5,2 l1-3 l-2.5-2 h3 z" />
                    <path d="M0,12 l1,3 h3 l-2.5,2 l1,3 l-2.5-2 l-2.5,2 l1-3 l-2.5-2 h3 z"
                        transform="scale(0.8)" />
                    <path d="M-12,0 l1,3 h3 l-2.5,2 l1,3 l-2.5-2 l-2.5,2 l1-3 l-2.5-2 h3 z"
                        transform="scale(0.8)" />
                    <path d="M12,-3 l1,3 h3 l-2.5,2 l1,3 l-2.5-2 l-2.5,2 l1-3 l-2.5-2 h3 z"
                        transform="scale(0.8)" />
                    <path
                        d="M5,5 l0.8,2.4 h2.4 l-2,1.6 l0.8,2.4 l-2-1.6 l-2,1.6 l0.8-2.4 l-2-1.6 h2.4 z"
                        transform="scale(0.6)" />
                </g>
                <circle r="15" fill="none" stroke="white" stroke-width="0.5" stroke-dasharray="1,2" />
                <animateTransform attributeName="transform" type="translate" dur="2s"
                    repeatCount="indefinite" values="30,20; 30,22; 30,18; 30,20" />
            </g>
        </g>
        <animateTransform attributeName="transform" type="rotate" dur="1.8s"
            repeatCount="indefinite"
            values="0 170 138; 10 170 138; -5 170 138; 10 170 138; 0 170 138" />
    </g>
</svg>