<svg xmlns="http://www.w3.org/2000/svg" width="260" height="260" viewBox="0 0 260 260">
  <defs>
    <radialGradient id="groundGlow" cx="50%" cy="55%" r="58%">
      <stop offset="0%" stop-color="#d9ecff" stop-opacity="0.35" />
      <stop offset="100%" stop-color="#d9ecff" stop-opacity="0" />
    </radialGradient>
    <linearGradient id="bodyDark" x1="0" y1="0" x2="1" y2="1">
      <stop offset="0%" stop-color="#1a1a1a" />
      <stop offset="100%" stop-color="#060606" />
    </linearGradient>
    <linearGradient id="belly" x1="0" y1="0" x2="1" y2="1">
      <stop offset="0%" stop-color="#ffffff" />
      <stop offset="100%" stop-color="#e5e5e5" />
    </linearGradient>
    <linearGradient id="beak" x1="0" y1="0" x2="0" y2="1">
      <stop offset="0%" stop-color="#ffd84d" />
      <stop offset="100%" stop-color="#e3ae00" />
    </linearGradient>
    <filter id="shadow" x="-40%" y="-40%" width="180%" height="180%">
      <feDropShadow dx="0" dy="4" stdDeviation="3" flood-color="#000" flood-opacity="0.35" />
    </filter>
  </defs>

  <rect width="260" height="260" fill="transparent" />
  <ellipse cx="130" cy="170" rx="102" ry="72" fill="url(#groundGlow)" />

  <!-- Sombra no chão -->
  <ellipse cx="130" cy="190" rx="80" ry="18" fill="#000" opacity="0.22" />

  <!-- Corpo deitado -->
  <g transform="translate(130 150) rotate(-14) translate(-130 -150)" filter="url(#shadow)">
    <!-- pés -->
    <g fill="url(#beak)" stroke="#c99700" stroke-width="1.4">
      <path
        d="M86 176 C72 182, 68 194, 81 199 C96 204, 114 197, 118 189 C121 183, 106 176, 86 176 Z" />
      <path
        d="M176 190 C188 196, 201 194, 205 184 C209 174, 193 170, 180 175 C169 179, 166 186, 176 190 Z" />
    </g>


    <!-- asas finas e mais abertas para fora -->
    <g transform="translate(150 117) rotate(132) translate(-18 -126)">
      <path d="M72 148 C48 175, 64 208, 93 215 C97 202, 94 165, 72 148 Z" fill="#0a0a0a" />
    </g>
    <g transform="translate(230 137) rotate(-132) translate(-155 -200)">
      <path d="M188 148 C212 175, 196 208, 167 215 C163 202, 166 165, 188 148 Z" fill="#0a0a0a" />
    </g>
    <!-- corpo -->
    <ellipse cx="130" cy="150" rx="64" ry="44" fill="url(#bodyDark)" />
    <ellipse cx="130" cy="152" rx="42" ry="30" fill="url(#belly)" />
    <!-- cabeça caída -->
    <g transform="translate(130 117) rotate(12) translate(-158 -126)">
      <ellipse cx="158" cy="126" rx="32" ry="25" fill="url(#bodyDark)" />

      <!-- olhos X -->
      <g stroke="#ffffff" stroke-width="3" stroke-linecap="round">
        <line x1="145" y1="121" x2="153" y2="129" />
        <line x1="153" y1="121" x2="145" y2="129" />
        <line x1="163" y1="121" x2="171" y2="129" />
        <line x1="171" y1="121" x2="163" y2="129" />
      </g>

      <ellipse cx="153" cy="144" rx="8" ry="8" fill="#bb0000" opacity="45" />
      <!-- bico -->
      <path
        d="M146 136 C146 131, 153 128, 158 128 C163 128, 170 131, 170 136 C170 143, 164 147, 158 147 C152 147, 146 143, 146 136 Z"
        fill="url(#beak)" stroke="#c99700" stroke-width="1.2" />
    </g>
  </g>


  <!-- estrelinhas sutis -->
  <g fill="#ffd860" opacity="0.7">
    <circle cx="84" cy="102" r="2">
      <animate attributeName="opacity" values="0.2;0.9;0.2" dur="1.2s" repeatCount="indefinite" />
    </circle>
    <circle cx="104" cy="84" r="1.8">
      <animate attributeName="opacity" values="0.8;0.2;0.8" dur="1.4s" repeatCount="indefinite" />
    </circle>
    <circle cx="196" cy="98" r="2.2">
      <animate attributeName="opacity" values="0.3;0.9;0.3" dur="1.1s" repeatCount="indefinite" />
    </circle>
  </g>
</svg>