<?xml version="1.0" encoding="utf-8"?>
<svg xmlns="http://www.w3.org/2000/svg" width="360" height="360" viewBox="-12.939 53.394 320 360"
    xmlns:bx="https://boxy-svg.com">
    <defs>
        <!-- Recortes para limitar desenho do corpo/cabeca -->
        <clipPath id="clip-corpo-trace">
            <rect y="220" width="475" height="305" x="0" />
        </clipPath>
        <clipPath id="clip-cabeca">
            <rect x="210" y="35" width="220" height="210" />
        </clipPath>
        <bx:export>
            <bx:file format="svg" path="Sem título.svg" />
        </bx:export>
    </defs>
    <g transform="matrix(1.8, 0, 0, 1.8, -150, -37)">

        <!-- Buraco de pesca -->
        <g transform="translate(222,230)">
            <ellipse cx="0" cy="0" rx="42" ry="18" fill="#86c0e2" />
            <ellipse cx="0" cy="0" rx="32" ry="13" fill="#1f5f8d" />
            <ellipse cx="0" cy="0" rx="25" ry="10" fill="#123f63" />
            <ellipse cx="0" cy="0" rx="22" ry="8.5" fill="none" stroke="#8ad5ff" stroke-width="1.5"
                opacity="0.45">
                <animate attributeName="rx" values="20;24;20" dur="1.9s" repeatCount="indefinite" />
                <animate attributeName="ry" values="7.5;9.3;7.5" dur="1.9s" repeatCount="indefinite" />
                <animate attributeName="opacity" values="0.25;0.65;0.25" dur="1.9s"
                    repeatCount="indefinite" />
            </ellipse>
        </g>
        <!-- Pinguim -->
        <g transform="translate(44,72) scale(0.34)">
            <path
                d="M 126.632 440.701 C 126.247 441.087, 122.605 441.424, 118.540 441.451 C 99.349 441.578, 96.865 458.483, 112.220 484.469 C 128.334 511.740, 155.319 525.851, 165.822 512.499 C 167.616 510.218, 168.054 510.160, 182.083 510.328 C 213.354 510.702, 210.916 502.458, 171.937 476.023 C 154.606 464.269, 155.829 465.986, 161.625 461.560 L 166.250 458.029 159.375 454.917 C 155.594 453.206, 150.090 450.729, 147.145 449.412 C 144.200 448.095, 139.191 445.438, 136.014 443.509 C 130.294 440.034, 127.989 439.344, 126.632 440.701"
                fill="#f3c302" transform="translate(130,-30)" />
            <path
                d="M 126.632 440.701 C 126.247 441.087, 122.605 441.424, 118.540 441.451 C 99.349 441.578, 96.865 458.483, 112.220 484.469 C 128.334 511.740, 155.319 525.851, 165.822 512.499 C 167.616 510.218, 168.054 510.160, 182.083 510.328 C 213.354 510.702, 210.916 502.458, 171.937 476.023 C 154.606 464.269, 155.829 465.986, 161.625 461.560 L 166.250 458.029 159.375 454.917 C 155.594 453.206, 150.090 450.729, 147.145 449.412 C 144.200 448.095, 139.191 445.438, 136.014 443.509 C 130.294 440.034, 127.989 439.344, 126.632 440.701"
                fill="#f3c302" transform="translate(50,0)">
                <animateTransform attributeName="transform" type="translate" additive="sum"
                    values="0 0;0 7;0 0;0 0" keyTimes="0;0.35;0.6;1" dur="0.9s"
                    repeatCount="indefinite" />
            </path>
            <path
                d="M 326 131.084 C 312.497 137.206 307.116 154.662 314.619 168.002 C 326.504 189.129 354.395 179.311 354.395 154 C 354.395 135.991 340.288 124.606 326 131.084 M 368.223 138.262 C 360.762 146.204 358.029 170 364.577 170 C 365.945 170 368.615 170.648 370.51 171.44 C 372.553 172.293 374.193 172.497 374.537 171.94 C 374.857 171.423 374.495 171 373.733 171 C 369.4 171 365.997 162.16 367.417 154.593 C 368.346 149.639 372.677 144.705 375.605 145.265 L 377.888 145.701 L 375.81 141.601 C 372.681 135.428 371.411 134.869 368.223 138.262 M 342.256 144.029 C 335.109 146.902 332.938 163.014 338.963 168.466 C 348.399 177.006 358.118 154.964 348.956 145.802 C 345.918 142.765 345.606 142.682 342.256 144.029 M 307.774 248.416 C 283.518 256.977 261.602 265.706 237.599 322.064 C 215.659 373.579 209.494 416.783 209.509 445 C 209.521 468.398 208.949 467.486 223.087 466.627 C 314.078 461.101 353 391.158 327.066 279.778 C 326.07 275.5 325.595 272 326.01 272 C 326.728 272 320.707 254.593 317.968 248.75 C 316.413 245.432 316.244 245.427 307.774 248.416"
                fill="#fefefe" clip-path="url(#clip-corpo-trace)" />
            <path
                d="M 148.889 216.088 C 79.832 278.104 95.934 375.009 78.74 385.224 C 74.926 387.49 71.549 390.011 71.236 390.826 C 68.934 396.826 93.066 418.828 118.296 433.734 C 122.584 436.267 126.323 438.713 126.605 439.17 C 126.887 439.626 127.82 440 128.678 440 C 129.536 440 132.778 441.543 135.882 443.429 C 155.643 455.432 188.147 465.994 205.344 465.999 L 210.188 466 L 209.344 460.75 C 204.544 430.887 215.198 390.052 244.571 325.733 C 266.598 277.499 293.156 247.37 315.106 245.717 M 326.346 274.75 C 329.838 280.4 335 321.728 335 344.032 L 335 362.625 L 347.001 363.959 C 399.947 369.846 404.27 350.937 361.226 301.745 C 347.387 285.93 320.297 264.964 326.346 274.75"
                fill="#0c0c0c" clip-path="url(#clip-corpo-trace)" />
        </g>
        <g transform="translate(40,70) scale(0.34)">
            <!-- Cabeca -->
            <g id="cabeca" transform="rotate(15 220 200)">
                <path
                    d="M 326 131.084 C 312.497 137.206, 307.116 154.662, 314.619 168.002 C 326.504 189.129, 354.395 179.311, 354.395 154 C 354.395 135.991, 340.288 124.606, 326 131.084 M 368.223 138.262 C 360.762 146.204, 358.029 170, 364.577 170 C 365.945 170, 368.615 170.648, 370.510 171.440 C 372.553 172.293, 374.193 172.497, 374.537 171.940 C 374.857 171.423, 374.495 171, 373.733 171 C 369.400 171, 365.997 162.160, 367.417 154.593 C 368.346 149.639, 372.677 144.705, 375.605 145.265 L 377.888 145.701 375.810 141.601 C 372.681 135.428, 371.411 134.869, 368.223 138.262 M 342.256 144.029 C 335.109 146.902, 332.938 163.014, 338.963 168.466 C 348.399 177.006, 358.118 154.964, 348.956 145.802 C 345.918 142.765, 345.606 142.682, 342.256 144.029 M 307.774 248.416 C 283.518 256.977, 261.617 286.438, 237.614 342.796 C 215.674 394.311, 209.494 416.783, 209.509 445 C 209.521 468.398, 208.949 467.486, 223.087 466.627 C 314.078 461.101, 353 391.158, 327.066 279.778 C 326.070 275.500, 325.595 272, 326.010 272 C 326.728 272, 320.707 254.593, 317.968 248.750 C 316.413 245.432, 316.244 245.427, 307.774 248.416"
                    clip-path="url(#clip-cabeca)" stroke="none" fill="#fefefe" fill-rule="evenodd" />
                <path
                    d="M 287.28 58.999 C 284.133 60.295 283.409 64.487 285.167 71.235 C 287.129 78.766 286.315 78.918 273.392 73.438 C 256.448 66.253 247.837 70.203 253.69 82.476 C 255.876 87.06 254.642 88.371 248.283 88.22 C 236.909 87.95 234.498 89.92 236.985 97.453 C 238.119 100.891 238.015 101.174 233.942 105.756 C 215.982 125.961 202.318 156.785 219.515 156.79 C 219.515 156.79 293.156 247.37 315.106 245.717 C 316.952 245.578 314.893 240.596 310.058 233.5 C 307.251 229.382 307.267 229.361 313.75 228.6 C 335.431 226.053 347.002 219.495 339.419 214.049 C 321.709 201.331 326.03 189.616 354.104 174.238 L 360.709 170.62 L 360.704 161.06 C 360.699 148.446 365.623 136 370.618 136 C 372.278 136 372.149 135.293 368.867 126.428 C 367.835 123.639 365.228 118.436 363.075 114.866 C 360.922 111.296 358.486 105.793 357.662 102.637 C 355.194 93.188 351.024 89.376 347.267 93.133 C 345.458 94.942 343.248 93.411 342.48 89.818 C 338.504 71.216 324.084 61.907 321.463 76.25 C 320.248 82.897 317.459 81.516 307.211 69.195 C 300.702 61.37 292.147 56.993 287.28 58.999 M 324.488 131.354 C 310.271 137.974 306.205 159.701 316.855 172.143 C 330.486 188.068 353.506 178.184 354.823 155.841 C 355.981 136.196 340.656 123.825 324.488 131.354 M 340.299 146.25 C 335.636 151.37 334.558 159.159 337.619 165.61 C 342.147 175.152 351.488 168.694 351.496 156.015 C 351.502 145.699 345.538 140.498 340.299 146.25 M 370.296 148.671 C 365.923 155.344 367.84 169.413 373.225 170.177 C 378.134 170.874 382.082 155.663 378.839 148.547 C 377.212 144.975 372.674 145.041 370.296 148.671"
                    clip-path="url(#clip-cabeca)" stroke="none" fill="#0c0c0c" fill-rule="evenodd"
                    style="stroke-width: 44.1176px;" />
                <path
                    d="M 313.954 141.086 C 313.340 142.233, 313.026 143.360, 313.257 143.590 C 313.487 143.820, 314.189 142.882, 314.816 141.504 C 316.194 138.480, 315.523 138.154, 313.954 141.086 M 363.954 143.086 C 363.340 144.233, 363.026 145.360, 363.257 145.590 C 363.487 145.820, 364.189 144.882, 364.816 143.504 C 366.194 140.480, 365.523 140.154, 363.954 143.086 M 352.232 156 C 352.232 157.925, 352.438 158.713, 352.689 157.750 C 352.941 156.787, 352.941 155.213, 352.689 154.250 C 352.438 153.287, 352.232 154.075, 352.232 156 M 367.300 159 C 367.300 162.025, 367.487 163.262, 367.716 161.750 C 367.945 160.238, 367.945 157.762, 367.716 156.250 C 367.487 154.738, 367.300 155.975, 367.300 159 M 335.232 158 C 335.232 159.925, 335.438 160.713, 335.689 159.750 C 335.941 158.787, 335.941 157.213, 335.689 156.250 C 335.438 155.287, 335.232 156.075, 335.232 158 M 360.272 160 C 360.272 162.475, 360.467 163.488, 360.706 162.250 C 360.944 161.012, 360.944 158.988, 360.706 157.750 C 360.467 156.512, 360.272 157.525, 360.272 160 M 361.109 168.500 C 361.024 169.884, 358.908 171.633, 354.243 174.178 C 326.481 189.320, 321.810 201.011, 338.576 213.399 C 340.734 214.994, 343.030 216.947, 343.677 217.740 C 345.870 220.428, 366.890 220.677, 376.940 218.135 C 381.968 216.863, 388.519 216, 393.143 216 C 407.340 216, 409.860 210.893, 401.716 198.627 C 396.038 190.076, 376.142 171.309, 374.268 172.737 C 374.141 172.834, 372.468 172.258, 370.550 171.457 C 368.633 170.655, 365.958 170, 364.605 170 C 363.105 170, 361.968 169.318, 361.689 168.250 C 361.304 166.774, 361.213 166.813, 361.109 168.500 M 282.966 264.750 L 277.500 270.500 283.250 265.034 C 288.592 259.956, 289.458 259, 288.716 259 C 288.560 259, 285.972 261.587, 282.966 264.750 M 325.500 273 C 325.840 273.550, 326.879 273.993, 327.809 273.985 C 329.266 273.971, 329.293 273.835, 328 273 C 326.042 271.734, 324.718 271.734, 325.500 273 M 333.195 315.500 C 333.215 317.150, 333.439 317.704, 333.693 316.731 C 333.947 315.758, 333.930 314.408, 333.656 313.731 C 333.382 313.054, 333.175 313.850, 333.195 315.500 M 334.300 327 C 334.300 330.025, 334.487 331.262, 334.716 329.750 C 334.945 328.238, 334.945 325.762, 334.716 324.250 C 334.487 322.738, 334.300 323.975, 334.300 327 M 334.116 358.250 C 334.052 361.413, 334.349 364, 334.776 364 C 335.203 364, 335.405 362.087, 335.224 359.750 C 334.681 352.745, 334.239 352.147, 334.116 358.250"
                    clip-path="url(#clip-cabeca)" stroke="none" fill="#f3c302" fill-rule="evenodd" />
            </g>
        </g>
        <!-- Olhos levemente serrados -->
        <g fill="#0c0c0c">
            <ellipse cx="156" cy="123" rx="12" ry="5" />
        </g>
        <!-- Braco, vara, linha e boia -->
        <g transform="translate(140,160)">
            <animateTransform attributeName="transform" type="rotate" additive="sum"
                values="-11 0 0;-17 0 0;-10 0 0;-11 0 0" keyTimes="0;0.45;0.8;1"
                keySplines="0.42 0 0.58 1;0.2 0.85 0.25 1;0.42 0 0.58 1" calcMode="spline"
                dur="1.8s" repeatCount="indefinite" />
            <path d="M0 0 C16 8, 22 30, 10 48 C-3 46, -8 17, 0 0 Z" fill="#0a0a0a" />
            <path d="M 10.262 45.18 C 38.602 10.72 59.594 23.669 67.594 26.669" fill="none"
                stroke="#9a6632" stroke-width="4" stroke-linecap="round">
                <animate attributeName="d"
                    values="M 10.262 45.18 C 38.602 10.72 59.594 23.669 67.594 26.669;M 10.262 45.18 C 39.900 9.700 62.100 23.900 70.100 27.500;M 10.262 45.18 C 37.800 11.300 58.600 23.100 66.900 26.100;M 10.262 45.18 C 38.602 10.72 59.594 23.669 67.594 26.669"
                    keyTimes="0;0.45;0.8;1" dur="1.8s" repeatCount="indefinite" />
            </path>
            <path d="M 43 20.29 C 47 11.29 47.469 12.564 56.762 4.92" fill="none" stroke="#9a6632"
                stroke-width="2.5" stroke-linecap="round">
                <animate attributeName="d"
                    values="M 43 20.29 C 47 11.29 47.469 12.564 56.762 4.92;M 44 20.1 C 48.8 9.8 49.6 11.8 59 3.8;M 42.6 20.6 C 46.5 12.2 46.9 13.3 55.8 5.6;M 43 20.29 C 47 11.29 47.469 12.564 56.762 4.92"
                    keyTimes="0;0.45;0.8;1" dur="1.8s" repeatCount="indefinite" />
            </path>
            <path d="M 67.612 26.233 C 68.924 42.800 84.119 55.200 69.902 79.272" fill="none"
                stroke="#dff5ff" stroke-width="1.8" stroke-linecap="round" opacity="0.95">
                <animate attributeName="d"
                    values="M 67.612 26.233 C 68.924 42.800 84.119 55.200 69.902 79.272;M 70.100 27.500 C 72.400 45.100 87.700 58.300 73.100 83.100;M 66.900 26.100 C 68.500 41.700 82.900 53.400 68.700 77.900;M 67.612 26.233 C 68.924 42.800 84.119 55.200 69.902 79.272"
                    keyTimes="0;0.45;0.8;1" dur="1.8s" repeatCount="indefinite" />
            </path>
            <circle cx="54" cy="54" r="2.118" fill="#ffd24d" style=""
                transform="matrix(1.33828, 0, 0, 1.332394, -4.736202, 6.795873)">
                <animate attributeName="cx" values="54;57;53.5;54" keyTimes="0;0.45;0.8;1"
                    dur="1.8s"
                    repeatCount="indefinite" />
                <animate attributeName="cy" values="54;57;53.5;54" keyTimes="0;0.45;0.8;1"
                    dur="1.8s"
                    repeatCount="indefinite" />
            </circle>
        </g>
        <path stroke-width="0"
            d="M 119.523 117.95 C 120.972 116.961 130.034 136.708 134.512 146.018 C 135.752 148.596 136.466 150.45 136.299 150.961 C 135.732 152.693 94.535 160.481 87.9 161.84 C 81.265 163.199 88.207 151.439 98.75 140.758 C 101.423 138.05 105.059 136.4 107.743 133.367 C 109.918 130.91 117.144 129.092 116.969 126.717 C 116.822 124.723 118.023 118.974 119.523 117.95 Z"
            fill="#0a0a0a" />
    </g>
</svg>