<svg width="200" height="250" viewBox="0 0 100 120" xmlns="http://www.w3.org/2000/svg">
    <defs>
        <radialGradient id="snowGrad" cx="50%" cy="50%" r="50%" fx="30%" fy="30%">
            <stop offset="0%" style="stop-color:#ffffff" />
            <stop offset="100%" style="stop-color:#e0f0ff" />
        </radialGradient>
    </defs>
    <!-- 
    <ellipse cx="50" cy="110" rx="35" ry="8" fill="#d0e0f0" opacity="0.5" /> -->

    <circle cx="50" cy="90" r="25" fill="url(#snowGrad)" stroke="#b0c4de" stroke-width="0.5" />
    <circle cx="50" cy="60" r="18" fill="url(#snowGrad)" stroke="#b0c4de" stroke-width="0.5" />
    <circle cx="50" cy="38" r="12" fill="url(#snowGrad)" stroke="#b0c4de" stroke-width="0.5" />

    <path d="M40 48 Q50 55 60 48 L62 52 Q50 60 38 52 Z" fill="#d32f2f" />
    <rect x="58" y="50" width="6" height="15" fill="#b71c1c" rx="1" transform="rotate(-10 58 50)" />

    <circle cx="46" cy="35" r="1.5" fill="#222" />
    <circle cx="54" cy="35" r="1.5" fill="#222" />
    <circle cx="45.5" cy="34.5" r="0.5" fill="white" />
    <circle cx="53.5" cy="34.5" r="0.5" fill="white" />

    <polygon points="50,38 50,42 65,40" fill="#ff9800" stroke="#e65100" stroke-width="0.2" />

    <circle cx="50" cy="58" r="1.5" fill="#333" />
    <circle cx="50" cy="65" r="1.5" fill="#333" />
    <circle cx="50" cy="72" r="1.5" fill="#333" />

    <g stroke="#5d4037" stroke-width="1.5" stroke-linecap="round">
        <line x1="32" y1="60" x2="15" y2="45" />
        <line x1="18" y1="48" x2="12" y2="52" />
        <line x1="68" y1="60" x2="85" y2="45" />
        <line x1="82" y1="48" x2="88" y2="52" />
    </g>

    <rect x="38" y="24" width="24" height="4" fill="#222" rx="1" />
    <rect x="42" y="10" width="16" height="15" fill="#222" rx="1" />
    <rect x="42" y="20" width="16" height="3" fill="#d32f2f" />
</svg>